%TF.GenerationSoftware,KiCad,Pcbnew,10.0.3*%
%TF.CreationDate,2026-08-17T19:15:30+05:30*%
%TF.ProjectId,ac_dc_converter,61635f64-635f-4636-9f6e-766572746572,rev?*%
%TF.SameCoordinates,Original*%
%TF.FileFunction,Legend,Top*%
%TF.FilePolarity,Positive*%
%FSLAX46Y46*%
G04 Gerber Fmt 4.6, Leading zero omitted, Abs format (unit mm)*
G04 Created by KiCad (PCBNEW 10.0.3) date 2026-08-17 19:15:30*
%MOMM*%
%LPD*%
G01*
G04 APERTURE LIST*
%ADD10C,0.250000*%
%ADD11C,0.150000*%
%ADD12C,0.120000*%
G04 APERTURE END LIST*
D10*
X129378570Y-91614619D02*
X128807142Y-91614619D01*
X129092856Y-91614619D02*
X129092856Y-90614619D01*
X129092856Y-90614619D02*
X128997618Y-90757476D01*
X128997618Y-90757476D02*
X128902380Y-90852714D01*
X128902380Y-90852714D02*
X128807142Y-90900333D01*
X129759523Y-90709857D02*
X129807142Y-90662238D01*
X129807142Y-90662238D02*
X129902380Y-90614619D01*
X129902380Y-90614619D02*
X130140475Y-90614619D01*
X130140475Y-90614619D02*
X130235713Y-90662238D01*
X130235713Y-90662238D02*
X130283332Y-90709857D01*
X130283332Y-90709857D02*
X130330951Y-90805095D01*
X130330951Y-90805095D02*
X130330951Y-90900333D01*
X130330951Y-90900333D02*
X130283332Y-91043190D01*
X130283332Y-91043190D02*
X129711904Y-91614619D01*
X129711904Y-91614619D02*
X130330951Y-91614619D01*
X130616666Y-90614619D02*
X130949999Y-91614619D01*
X130949999Y-91614619D02*
X131283332Y-90614619D01*
X132330952Y-91328904D02*
X132807142Y-91328904D01*
X132235714Y-91614619D02*
X132569047Y-90614619D01*
X132569047Y-90614619D02*
X132902380Y-91614619D01*
X133807142Y-91519380D02*
X133759523Y-91567000D01*
X133759523Y-91567000D02*
X133616666Y-91614619D01*
X133616666Y-91614619D02*
X133521428Y-91614619D01*
X133521428Y-91614619D02*
X133378571Y-91567000D01*
X133378571Y-91567000D02*
X133283333Y-91471761D01*
X133283333Y-91471761D02*
X133235714Y-91376523D01*
X133235714Y-91376523D02*
X133188095Y-91186047D01*
X133188095Y-91186047D02*
X133188095Y-91043190D01*
X133188095Y-91043190D02*
X133235714Y-90852714D01*
X133235714Y-90852714D02*
X133283333Y-90757476D01*
X133283333Y-90757476D02*
X133378571Y-90662238D01*
X133378571Y-90662238D02*
X133521428Y-90614619D01*
X133521428Y-90614619D02*
X133616666Y-90614619D01*
X133616666Y-90614619D02*
X133759523Y-90662238D01*
X133759523Y-90662238D02*
X133807142Y-90709857D01*
X134854762Y-90947952D02*
X135235714Y-90947952D01*
X134997619Y-90614619D02*
X134997619Y-91471761D01*
X134997619Y-91471761D02*
X135045238Y-91567000D01*
X135045238Y-91567000D02*
X135140476Y-91614619D01*
X135140476Y-91614619D02*
X135235714Y-91614619D01*
X135711905Y-91614619D02*
X135616667Y-91567000D01*
X135616667Y-91567000D02*
X135569048Y-91519380D01*
X135569048Y-91519380D02*
X135521429Y-91424142D01*
X135521429Y-91424142D02*
X135521429Y-91138428D01*
X135521429Y-91138428D02*
X135569048Y-91043190D01*
X135569048Y-91043190D02*
X135616667Y-90995571D01*
X135616667Y-90995571D02*
X135711905Y-90947952D01*
X135711905Y-90947952D02*
X135854762Y-90947952D01*
X135854762Y-90947952D02*
X135950000Y-90995571D01*
X135950000Y-90995571D02*
X135997619Y-91043190D01*
X135997619Y-91043190D02*
X136045238Y-91138428D01*
X136045238Y-91138428D02*
X136045238Y-91424142D01*
X136045238Y-91424142D02*
X135997619Y-91519380D01*
X135997619Y-91519380D02*
X135950000Y-91567000D01*
X135950000Y-91567000D02*
X135854762Y-91614619D01*
X135854762Y-91614619D02*
X135711905Y-91614619D01*
X137235715Y-91614619D02*
X137235715Y-90614619D01*
X137235715Y-90614619D02*
X137473810Y-90614619D01*
X137473810Y-90614619D02*
X137616667Y-90662238D01*
X137616667Y-90662238D02*
X137711905Y-90757476D01*
X137711905Y-90757476D02*
X137759524Y-90852714D01*
X137759524Y-90852714D02*
X137807143Y-91043190D01*
X137807143Y-91043190D02*
X137807143Y-91186047D01*
X137807143Y-91186047D02*
X137759524Y-91376523D01*
X137759524Y-91376523D02*
X137711905Y-91471761D01*
X137711905Y-91471761D02*
X137616667Y-91567000D01*
X137616667Y-91567000D02*
X137473810Y-91614619D01*
X137473810Y-91614619D02*
X137235715Y-91614619D01*
X138807143Y-91519380D02*
X138759524Y-91567000D01*
X138759524Y-91567000D02*
X138616667Y-91614619D01*
X138616667Y-91614619D02*
X138521429Y-91614619D01*
X138521429Y-91614619D02*
X138378572Y-91567000D01*
X138378572Y-91567000D02*
X138283334Y-91471761D01*
X138283334Y-91471761D02*
X138235715Y-91376523D01*
X138235715Y-91376523D02*
X138188096Y-91186047D01*
X138188096Y-91186047D02*
X138188096Y-91043190D01*
X138188096Y-91043190D02*
X138235715Y-90852714D01*
X138235715Y-90852714D02*
X138283334Y-90757476D01*
X138283334Y-90757476D02*
X138378572Y-90662238D01*
X138378572Y-90662238D02*
X138521429Y-90614619D01*
X138521429Y-90614619D02*
X138616667Y-90614619D01*
X138616667Y-90614619D02*
X138759524Y-90662238D01*
X138759524Y-90662238D02*
X138807143Y-90709857D01*
X140569048Y-91519380D02*
X140521429Y-91567000D01*
X140521429Y-91567000D02*
X140378572Y-91614619D01*
X140378572Y-91614619D02*
X140283334Y-91614619D01*
X140283334Y-91614619D02*
X140140477Y-91567000D01*
X140140477Y-91567000D02*
X140045239Y-91471761D01*
X140045239Y-91471761D02*
X139997620Y-91376523D01*
X139997620Y-91376523D02*
X139950001Y-91186047D01*
X139950001Y-91186047D02*
X139950001Y-91043190D01*
X139950001Y-91043190D02*
X139997620Y-90852714D01*
X139997620Y-90852714D02*
X140045239Y-90757476D01*
X140045239Y-90757476D02*
X140140477Y-90662238D01*
X140140477Y-90662238D02*
X140283334Y-90614619D01*
X140283334Y-90614619D02*
X140378572Y-90614619D01*
X140378572Y-90614619D02*
X140521429Y-90662238D01*
X140521429Y-90662238D02*
X140569048Y-90709857D01*
X141188096Y-90614619D02*
X141378572Y-90614619D01*
X141378572Y-90614619D02*
X141473810Y-90662238D01*
X141473810Y-90662238D02*
X141569048Y-90757476D01*
X141569048Y-90757476D02*
X141616667Y-90947952D01*
X141616667Y-90947952D02*
X141616667Y-91281285D01*
X141616667Y-91281285D02*
X141569048Y-91471761D01*
X141569048Y-91471761D02*
X141473810Y-91567000D01*
X141473810Y-91567000D02*
X141378572Y-91614619D01*
X141378572Y-91614619D02*
X141188096Y-91614619D01*
X141188096Y-91614619D02*
X141092858Y-91567000D01*
X141092858Y-91567000D02*
X140997620Y-91471761D01*
X140997620Y-91471761D02*
X140950001Y-91281285D01*
X140950001Y-91281285D02*
X140950001Y-90947952D01*
X140950001Y-90947952D02*
X140997620Y-90757476D01*
X140997620Y-90757476D02*
X141092858Y-90662238D01*
X141092858Y-90662238D02*
X141188096Y-90614619D01*
X142045239Y-91614619D02*
X142045239Y-90614619D01*
X142045239Y-90614619D02*
X142616667Y-91614619D01*
X142616667Y-91614619D02*
X142616667Y-90614619D01*
X142950001Y-90614619D02*
X143283334Y-91614619D01*
X143283334Y-91614619D02*
X143616667Y-90614619D01*
X143950001Y-91090809D02*
X144283334Y-91090809D01*
X144426191Y-91614619D02*
X143950001Y-91614619D01*
X143950001Y-91614619D02*
X143950001Y-90614619D01*
X143950001Y-90614619D02*
X144426191Y-90614619D01*
X145426191Y-91614619D02*
X145092858Y-91138428D01*
X144854763Y-91614619D02*
X144854763Y-90614619D01*
X144854763Y-90614619D02*
X145235715Y-90614619D01*
X145235715Y-90614619D02*
X145330953Y-90662238D01*
X145330953Y-90662238D02*
X145378572Y-90709857D01*
X145378572Y-90709857D02*
X145426191Y-90805095D01*
X145426191Y-90805095D02*
X145426191Y-90947952D01*
X145426191Y-90947952D02*
X145378572Y-91043190D01*
X145378572Y-91043190D02*
X145330953Y-91090809D01*
X145330953Y-91090809D02*
X145235715Y-91138428D01*
X145235715Y-91138428D02*
X144854763Y-91138428D01*
X145711906Y-90614619D02*
X146283334Y-90614619D01*
X145997620Y-91614619D02*
X145997620Y-90614619D01*
X146616668Y-91090809D02*
X146950001Y-91090809D01*
X147092858Y-91614619D02*
X146616668Y-91614619D01*
X146616668Y-91614619D02*
X146616668Y-90614619D01*
X146616668Y-90614619D02*
X147092858Y-90614619D01*
X148092858Y-91614619D02*
X147759525Y-91138428D01*
X147521430Y-91614619D02*
X147521430Y-90614619D01*
X147521430Y-90614619D02*
X147902382Y-90614619D01*
X147902382Y-90614619D02*
X147997620Y-90662238D01*
X147997620Y-90662238D02*
X148045239Y-90709857D01*
X148045239Y-90709857D02*
X148092858Y-90805095D01*
X148092858Y-90805095D02*
X148092858Y-90947952D01*
X148092858Y-90947952D02*
X148045239Y-91043190D01*
X148045239Y-91043190D02*
X147997620Y-91090809D01*
X147997620Y-91090809D02*
X147902382Y-91138428D01*
X147902382Y-91138428D02*
X147521430Y-91138428D01*
D11*
X115237319Y-98218333D02*
X115951604Y-98218333D01*
X115951604Y-98218333D02*
X116094461Y-98265952D01*
X116094461Y-98265952D02*
X116189700Y-98361190D01*
X116189700Y-98361190D02*
X116237319Y-98504047D01*
X116237319Y-98504047D02*
X116237319Y-98599285D01*
X116237319Y-97218333D02*
X116237319Y-97789761D01*
X116237319Y-97504047D02*
X115237319Y-97504047D01*
X115237319Y-97504047D02*
X115380176Y-97599285D01*
X115380176Y-97599285D02*
X115475414Y-97694523D01*
X115475414Y-97694523D02*
X115523033Y-97789761D01*
X143934819Y-97946666D02*
X143458628Y-98279999D01*
X143934819Y-98518094D02*
X142934819Y-98518094D01*
X142934819Y-98518094D02*
X142934819Y-98137142D01*
X142934819Y-98137142D02*
X142982438Y-98041904D01*
X142982438Y-98041904D02*
X143030057Y-97994285D01*
X143030057Y-97994285D02*
X143125295Y-97946666D01*
X143125295Y-97946666D02*
X143268152Y-97946666D01*
X143268152Y-97946666D02*
X143363390Y-97994285D01*
X143363390Y-97994285D02*
X143411009Y-98041904D01*
X143411009Y-98041904D02*
X143458628Y-98137142D01*
X143458628Y-98137142D02*
X143458628Y-98518094D01*
X143934819Y-96994285D02*
X143934819Y-97565713D01*
X143934819Y-97279999D02*
X142934819Y-97279999D01*
X142934819Y-97279999D02*
X143077676Y-97375237D01*
X143077676Y-97375237D02*
X143172914Y-97470475D01*
X143172914Y-97470475D02*
X143220533Y-97565713D01*
X115357319Y-111448333D02*
X116071604Y-111448333D01*
X116071604Y-111448333D02*
X116214461Y-111495952D01*
X116214461Y-111495952D02*
X116309700Y-111591190D01*
X116309700Y-111591190D02*
X116357319Y-111734047D01*
X116357319Y-111734047D02*
X116357319Y-111829285D01*
X115452557Y-111019761D02*
X115404938Y-110972142D01*
X115404938Y-110972142D02*
X115357319Y-110876904D01*
X115357319Y-110876904D02*
X115357319Y-110638809D01*
X115357319Y-110638809D02*
X115404938Y-110543571D01*
X115404938Y-110543571D02*
X115452557Y-110495952D01*
X115452557Y-110495952D02*
X115547795Y-110448333D01*
X115547795Y-110448333D02*
X115643033Y-110448333D01*
X115643033Y-110448333D02*
X115785890Y-110495952D01*
X115785890Y-110495952D02*
X116357319Y-111067380D01*
X116357319Y-111067380D02*
X116357319Y-110448333D01*
X146976905Y-95464819D02*
X146976905Y-94464819D01*
X146976905Y-94464819D02*
X147215000Y-94464819D01*
X147215000Y-94464819D02*
X147357857Y-94512438D01*
X147357857Y-94512438D02*
X147453095Y-94607676D01*
X147453095Y-94607676D02*
X147500714Y-94702914D01*
X147500714Y-94702914D02*
X147548333Y-94893390D01*
X147548333Y-94893390D02*
X147548333Y-95036247D01*
X147548333Y-95036247D02*
X147500714Y-95226723D01*
X147500714Y-95226723D02*
X147453095Y-95321961D01*
X147453095Y-95321961D02*
X147357857Y-95417200D01*
X147357857Y-95417200D02*
X147215000Y-95464819D01*
X147215000Y-95464819D02*
X146976905Y-95464819D01*
X148453095Y-94464819D02*
X147976905Y-94464819D01*
X147976905Y-94464819D02*
X147929286Y-94941009D01*
X147929286Y-94941009D02*
X147976905Y-94893390D01*
X147976905Y-94893390D02*
X148072143Y-94845771D01*
X148072143Y-94845771D02*
X148310238Y-94845771D01*
X148310238Y-94845771D02*
X148405476Y-94893390D01*
X148405476Y-94893390D02*
X148453095Y-94941009D01*
X148453095Y-94941009D02*
X148500714Y-95036247D01*
X148500714Y-95036247D02*
X148500714Y-95274342D01*
X148500714Y-95274342D02*
X148453095Y-95369580D01*
X148453095Y-95369580D02*
X148405476Y-95417200D01*
X148405476Y-95417200D02*
X148310238Y-95464819D01*
X148310238Y-95464819D02*
X148072143Y-95464819D01*
X148072143Y-95464819D02*
X147976905Y-95417200D01*
X147976905Y-95417200D02*
X147929286Y-95369580D01*
X137978152Y-114078094D02*
X136978152Y-114078094D01*
X136978152Y-114078094D02*
X136978152Y-113839999D01*
X136978152Y-113839999D02*
X137025771Y-113697142D01*
X137025771Y-113697142D02*
X137121009Y-113601904D01*
X137121009Y-113601904D02*
X137216247Y-113554285D01*
X137216247Y-113554285D02*
X137406723Y-113506666D01*
X137406723Y-113506666D02*
X137549580Y-113506666D01*
X137549580Y-113506666D02*
X137740056Y-113554285D01*
X137740056Y-113554285D02*
X137835294Y-113601904D01*
X137835294Y-113601904D02*
X137930533Y-113697142D01*
X137930533Y-113697142D02*
X137978152Y-113839999D01*
X137978152Y-113839999D02*
X137978152Y-114078094D01*
X137311485Y-112649523D02*
X137978152Y-112649523D01*
X136930533Y-112887618D02*
X137644818Y-113125713D01*
X137644818Y-113125713D02*
X137644818Y-112506666D01*
X149369580Y-113986666D02*
X149417200Y-114034285D01*
X149417200Y-114034285D02*
X149464819Y-114177142D01*
X149464819Y-114177142D02*
X149464819Y-114272380D01*
X149464819Y-114272380D02*
X149417200Y-114415237D01*
X149417200Y-114415237D02*
X149321961Y-114510475D01*
X149321961Y-114510475D02*
X149226723Y-114558094D01*
X149226723Y-114558094D02*
X149036247Y-114605713D01*
X149036247Y-114605713D02*
X148893390Y-114605713D01*
X148893390Y-114605713D02*
X148702914Y-114558094D01*
X148702914Y-114558094D02*
X148607676Y-114510475D01*
X148607676Y-114510475D02*
X148512438Y-114415237D01*
X148512438Y-114415237D02*
X148464819Y-114272380D01*
X148464819Y-114272380D02*
X148464819Y-114177142D01*
X148464819Y-114177142D02*
X148512438Y-114034285D01*
X148512438Y-114034285D02*
X148560057Y-113986666D01*
X149464819Y-113034285D02*
X149464819Y-113605713D01*
X149464819Y-113319999D02*
X148464819Y-113319999D01*
X148464819Y-113319999D02*
X148607676Y-113415237D01*
X148607676Y-113415237D02*
X148702914Y-113510475D01*
X148702914Y-113510475D02*
X148750533Y-113605713D01*
X137964819Y-99938094D02*
X136964819Y-99938094D01*
X136964819Y-99938094D02*
X136964819Y-99699999D01*
X136964819Y-99699999D02*
X137012438Y-99557142D01*
X137012438Y-99557142D02*
X137107676Y-99461904D01*
X137107676Y-99461904D02*
X137202914Y-99414285D01*
X137202914Y-99414285D02*
X137393390Y-99366666D01*
X137393390Y-99366666D02*
X137536247Y-99366666D01*
X137536247Y-99366666D02*
X137726723Y-99414285D01*
X137726723Y-99414285D02*
X137821961Y-99461904D01*
X137821961Y-99461904D02*
X137917200Y-99557142D01*
X137917200Y-99557142D02*
X137964819Y-99699999D01*
X137964819Y-99699999D02*
X137964819Y-99938094D01*
X136964819Y-99033332D02*
X136964819Y-98414285D01*
X136964819Y-98414285D02*
X137345771Y-98747618D01*
X137345771Y-98747618D02*
X137345771Y-98604761D01*
X137345771Y-98604761D02*
X137393390Y-98509523D01*
X137393390Y-98509523D02*
X137441009Y-98461904D01*
X137441009Y-98461904D02*
X137536247Y-98414285D01*
X137536247Y-98414285D02*
X137774342Y-98414285D01*
X137774342Y-98414285D02*
X137869580Y-98461904D01*
X137869580Y-98461904D02*
X137917200Y-98509523D01*
X137917200Y-98509523D02*
X137964819Y-98604761D01*
X137964819Y-98604761D02*
X137964819Y-98890475D01*
X137964819Y-98890475D02*
X137917200Y-98985713D01*
X137917200Y-98985713D02*
X137869580Y-99033332D01*
X144223333Y-104444819D02*
X143890000Y-103968628D01*
X143651905Y-104444819D02*
X143651905Y-103444819D01*
X143651905Y-103444819D02*
X144032857Y-103444819D01*
X144032857Y-103444819D02*
X144128095Y-103492438D01*
X144128095Y-103492438D02*
X144175714Y-103540057D01*
X144175714Y-103540057D02*
X144223333Y-103635295D01*
X144223333Y-103635295D02*
X144223333Y-103778152D01*
X144223333Y-103778152D02*
X144175714Y-103873390D01*
X144175714Y-103873390D02*
X144128095Y-103921009D01*
X144128095Y-103921009D02*
X144032857Y-103968628D01*
X144032857Y-103968628D02*
X143651905Y-103968628D01*
X144604286Y-103540057D02*
X144651905Y-103492438D01*
X144651905Y-103492438D02*
X144747143Y-103444819D01*
X144747143Y-103444819D02*
X144985238Y-103444819D01*
X144985238Y-103444819D02*
X145080476Y-103492438D01*
X145080476Y-103492438D02*
X145128095Y-103540057D01*
X145128095Y-103540057D02*
X145175714Y-103635295D01*
X145175714Y-103635295D02*
X145175714Y-103730533D01*
X145175714Y-103730533D02*
X145128095Y-103873390D01*
X145128095Y-103873390D02*
X144556667Y-104444819D01*
X144556667Y-104444819D02*
X145175714Y-104444819D01*
X129504819Y-115398094D02*
X128504819Y-115398094D01*
X128504819Y-115398094D02*
X128504819Y-115159999D01*
X128504819Y-115159999D02*
X128552438Y-115017142D01*
X128552438Y-115017142D02*
X128647676Y-114921904D01*
X128647676Y-114921904D02*
X128742914Y-114874285D01*
X128742914Y-114874285D02*
X128933390Y-114826666D01*
X128933390Y-114826666D02*
X129076247Y-114826666D01*
X129076247Y-114826666D02*
X129266723Y-114874285D01*
X129266723Y-114874285D02*
X129361961Y-114921904D01*
X129361961Y-114921904D02*
X129457200Y-115017142D01*
X129457200Y-115017142D02*
X129504819Y-115159999D01*
X129504819Y-115159999D02*
X129504819Y-115398094D01*
X128600057Y-114445713D02*
X128552438Y-114398094D01*
X128552438Y-114398094D02*
X128504819Y-114302856D01*
X128504819Y-114302856D02*
X128504819Y-114064761D01*
X128504819Y-114064761D02*
X128552438Y-113969523D01*
X128552438Y-113969523D02*
X128600057Y-113921904D01*
X128600057Y-113921904D02*
X128695295Y-113874285D01*
X128695295Y-113874285D02*
X128790533Y-113874285D01*
X128790533Y-113874285D02*
X128933390Y-113921904D01*
X128933390Y-113921904D02*
X129504819Y-114493332D01*
X129504819Y-114493332D02*
X129504819Y-113874285D01*
X129354819Y-100078094D02*
X128354819Y-100078094D01*
X128354819Y-100078094D02*
X128354819Y-99839999D01*
X128354819Y-99839999D02*
X128402438Y-99697142D01*
X128402438Y-99697142D02*
X128497676Y-99601904D01*
X128497676Y-99601904D02*
X128592914Y-99554285D01*
X128592914Y-99554285D02*
X128783390Y-99506666D01*
X128783390Y-99506666D02*
X128926247Y-99506666D01*
X128926247Y-99506666D02*
X129116723Y-99554285D01*
X129116723Y-99554285D02*
X129211961Y-99601904D01*
X129211961Y-99601904D02*
X129307200Y-99697142D01*
X129307200Y-99697142D02*
X129354819Y-99839999D01*
X129354819Y-99839999D02*
X129354819Y-100078094D01*
X129354819Y-98554285D02*
X129354819Y-99125713D01*
X129354819Y-98839999D02*
X128354819Y-98839999D01*
X128354819Y-98839999D02*
X128497676Y-98935237D01*
X128497676Y-98935237D02*
X128592914Y-99030475D01*
X128592914Y-99030475D02*
X128640533Y-99125713D01*
%TO.C,J1*%
D12*
X116782500Y-92685000D02*
X126822500Y-92685000D01*
X116782500Y-103085000D02*
X116782500Y-92685000D01*
X119802500Y-103085000D02*
X119802500Y-92685000D01*
X124702500Y-103085000D02*
X124702500Y-92685000D01*
X126202500Y-103085000D02*
X126202500Y-92685000D01*
X126822500Y-92685000D02*
X126822500Y-100125000D01*
X126822500Y-100725000D02*
X126822500Y-103085000D01*
X126822500Y-103085000D02*
X116782500Y-103085000D01*
X126822500Y-100425000D02*
X127432500Y-99985000D01*
X127432500Y-100865000D01*
X126822500Y-100425000D01*
G36*
X127432500Y-100865000D02*
G01*
X126822500Y-100425000D01*
X127432500Y-99985000D01*
X127432500Y-100865000D01*
G37*
%TO.C,R1*%
X139740000Y-94510000D02*
X139740000Y-101050000D01*
X139740000Y-101050000D02*
X140070000Y-101050000D01*
X140070000Y-94510000D02*
X139740000Y-94510000D01*
X142150000Y-94510000D02*
X142480000Y-94510000D01*
X142480000Y-94510000D02*
X142480000Y-101050000D01*
X142480000Y-101050000D02*
X142150000Y-101050000D01*
%TO.C,J2*%
X116902500Y-105915000D02*
X126942500Y-105915000D01*
X116902500Y-116315000D02*
X116902500Y-105915000D01*
X119922500Y-116315000D02*
X119922500Y-105915000D01*
X124822500Y-116315000D02*
X124822500Y-105915000D01*
X126322500Y-116315000D02*
X126322500Y-105915000D01*
X126942500Y-105915000D02*
X126942500Y-113355000D01*
X126942500Y-113955000D02*
X126942500Y-116315000D01*
X126942500Y-116315000D02*
X116902500Y-116315000D01*
X126942500Y-113655000D02*
X127552500Y-113215000D01*
X127552500Y-114095000D01*
X126942500Y-113655000D01*
G36*
X127552500Y-114095000D02*
G01*
X126942500Y-113655000D01*
X127552500Y-113215000D01*
X127552500Y-114095000D01*
G37*
%TO.C,D5*%
X145155000Y-97425000D02*
X145155000Y-100515000D01*
X145155000Y-97425170D02*
G75*
G02*
X150705000Y-98970000I2560000J-1544830D01*
G01*
X150705000Y-98970000D02*
G75*
G02*
X145155000Y-100514830I-2990000J0D01*
G01*
X150215000Y-98970000D02*
G75*
G02*
X145215000Y-98970000I-2500000J0D01*
G01*
X145215000Y-98970000D02*
G75*
G02*
X150215000Y-98970000I2500000J0D01*
G01*
%TO.C,D4*%
X135053333Y-109600000D02*
X135053333Y-110620000D01*
X135053333Y-117080000D02*
X135053333Y-116060000D01*
X136523333Y-111400000D02*
X133583333Y-111400000D01*
X136523333Y-111520000D02*
X133583333Y-111520000D01*
X136523333Y-111640000D02*
X133583333Y-111640000D01*
X133583333Y-110620000D02*
X136523333Y-110620000D01*
X136523333Y-116060000D01*
X133583333Y-116060000D01*
X133583333Y-110620000D01*
%TO.C,C1*%
X147880000Y-113820000D02*
G75*
G02*
X139640000Y-113820000I-4120000J0D01*
G01*
X139640000Y-113820000D02*
G75*
G02*
X147880000Y-113820000I4120000J0D01*
G01*
%TO.C,D3*%
X135040000Y-95460000D02*
X135040000Y-96480000D01*
X135040000Y-102940000D02*
X135040000Y-101920000D01*
X136510000Y-97260000D02*
X133570000Y-97260000D01*
X136510000Y-97380000D02*
X133570000Y-97380000D01*
X136510000Y-97500000D02*
X133570000Y-97500000D01*
X133570000Y-96480000D02*
X136510000Y-96480000D01*
X136510000Y-101920000D01*
X133570000Y-101920000D01*
X133570000Y-96480000D01*
%TO.C,R2*%
X141120000Y-104990000D02*
X147660000Y-104990000D01*
X141120000Y-105320000D02*
X141120000Y-104990000D01*
X141120000Y-107400000D02*
X141120000Y-107730000D01*
X141120000Y-107730000D02*
X147660000Y-107730000D01*
X147660000Y-104990000D02*
X147660000Y-105320000D01*
X147660000Y-107730000D02*
X147660000Y-107400000D01*
%TO.C,D2*%
X131420000Y-109760000D02*
X131420000Y-110780000D01*
X131420000Y-117240000D02*
X131420000Y-116220000D01*
X132890000Y-111560000D02*
X129950000Y-111560000D01*
X132890000Y-111680000D02*
X129950000Y-111680000D01*
X132890000Y-111800000D02*
X129950000Y-111800000D01*
X129950000Y-110780000D02*
X132890000Y-110780000D01*
X132890000Y-116220000D01*
X129950000Y-116220000D01*
X129950000Y-110780000D01*
%TO.C,D1*%
X131406667Y-95570000D02*
X131406667Y-96590000D01*
X131406667Y-103050000D02*
X131406667Y-102030000D01*
X132876667Y-97370000D02*
X129936667Y-97370000D01*
X132876667Y-97490000D02*
X129936667Y-97490000D01*
X132876667Y-97610000D02*
X129936667Y-97610000D01*
X129936667Y-96590000D02*
X132876667Y-96590000D01*
X132876667Y-102030000D01*
X129936667Y-102030000D01*
X129936667Y-96590000D01*
%TD*%
M02*
