%TF.GenerationSoftware,KiCad,Pcbnew,10.0.3*%
%TF.CreationDate,2026-08-17T19:15:30+05:30*%
%TF.ProjectId,ac_dc_converter,61635f64-635f-4636-9f6e-766572746572,rev?*%
%TF.SameCoordinates,Original*%
%TF.FileFunction,Copper,L1,Top*%
%TF.FilePolarity,Positive*%
%FSLAX46Y46*%
G04 Gerber Fmt 4.6, Leading zero omitted, Abs format (unit mm)*
G04 Created by KiCad (PCBNEW 10.0.3) date 2026-08-17 19:15:30*
%MOMM*%
%LPD*%
G01*
G04 APERTURE LIST*
G04 Aperture macros list*
%AMRoundRect*
0 Rectangle with rounded corners*
0 $1 Rounding radius*
0 $2 $3 $4 $5 $6 $7 $8 $9 X,Y pos of 4 corners*
0 Add a 4 corners polygon primitive as box body*
4,1,4,$2,$3,$4,$5,$6,$7,$8,$9,$2,$3,0*
0 Add four circle primitives for the rounded corners*
1,1,$1+$1,$2,$3*
1,1,$1+$1,$4,$5*
1,1,$1+$1,$6,$7*
1,1,$1+$1,$8,$9*
0 Add four rect primitives between the rounded corners*
20,1,$1+$1,$2,$3,$4,$5,0*
20,1,$1+$1,$4,$5,$6,$7,0*
20,1,$1+$1,$6,$7,$8,$9,0*
20,1,$1+$1,$8,$9,$2,$3,0*%
G04 Aperture macros list end*
%TA.AperFunction,ComponentPad*%
%ADD10RoundRect,0.250000X1.050000X-1.050000X1.050000X1.050000X-1.050000X1.050000X-1.050000X-1.050000X0*%
%TD*%
%TA.AperFunction,ComponentPad*%
%ADD11C,2.600000*%
%TD*%
%TA.AperFunction,ComponentPad*%
%ADD12C,1.600000*%
%TD*%
%TA.AperFunction,ComponentPad*%
%ADD13R,1.800000X1.800000*%
%TD*%
%TA.AperFunction,ComponentPad*%
%ADD14C,1.800000*%
%TD*%
%TA.AperFunction,ComponentPad*%
%ADD15RoundRect,0.249999X-0.850001X0.850001X-0.850001X-0.850001X0.850001X-0.850001X0.850001X0.850001X0*%
%TD*%
%TA.AperFunction,ComponentPad*%
%ADD16C,2.200000*%
%TD*%
%TA.AperFunction,Conductor*%
%ADD17C,0.200000*%
%TD*%
G04 APERTURE END LIST*
D10*
%TO.P,J1,1,Pin_1_1*%
%TO.N,Net-(D3-A)*%
X122102500Y-100425000D03*
D11*
%TO.P,J1,2,Pin_2_2*%
%TO.N,Net-(D1-A)*%
X122102500Y-95345000D03*
%TD*%
D12*
%TO.P,R1,1*%
%TO.N,Net-(D1-K)*%
X141110000Y-93970000D03*
%TO.P,R1,2*%
%TO.N,GND*%
X141110000Y-101590000D03*
%TD*%
D10*
%TO.P,J2,1,Pin_1_1*%
%TO.N,GND*%
X122222500Y-113655000D03*
D11*
%TO.P,J2,2,Pin_2_2*%
%TO.N,Net-(D1-K)*%
X122222500Y-108575000D03*
%TD*%
D13*
%TO.P,D5,1,K_1*%
%TO.N,GND*%
X146445000Y-98970000D03*
D14*
%TO.P,D5,2,A_2*%
%TO.N,Net-(D5-A)*%
X148985000Y-98970000D03*
%TD*%
D15*
%TO.P,D4,1,K_1*%
%TO.N,Net-(D3-A)*%
X135053333Y-108260000D03*
D16*
%TO.P,D4,2,A_2*%
%TO.N,GND*%
X135053333Y-118420000D03*
%TD*%
D12*
%TO.P,C1,1*%
%TO.N,Net-(D1-K)*%
X143760000Y-112070000D03*
%TO.P,C1,2*%
%TO.N,GND*%
X143760000Y-115570000D03*
%TD*%
D15*
%TO.P,D3,1,K_1*%
%TO.N,Net-(D1-K)*%
X135040000Y-94120000D03*
D16*
%TO.P,D3,2,A_2*%
%TO.N,Net-(D3-A)*%
X135040000Y-104280000D03*
%TD*%
D12*
%TO.P,R2,1*%
%TO.N,Net-(D1-K)*%
X140580000Y-106360000D03*
%TO.P,R2,2*%
%TO.N,Net-(D5-A)*%
X148200000Y-106360000D03*
%TD*%
D15*
%TO.P,D2,1,K_1*%
%TO.N,Net-(D1-A)*%
X131420000Y-108420000D03*
D16*
%TO.P,D2,2,A_2*%
%TO.N,GND*%
X131420000Y-118580000D03*
%TD*%
D15*
%TO.P,D1,1,K_1*%
%TO.N,Net-(D1-K)*%
X131406667Y-94230000D03*
D16*
%TO.P,D1,2,A_2*%
%TO.N,Net-(D1-A)*%
X131406667Y-104390000D03*
%TD*%
%TO.N,Net-(D1-K)*%
D17*
X143760000Y-112070000D02*
X143760000Y-109540000D01*
X143760000Y-109540000D02*
X140580000Y-106360000D01*
%TO.N,Net-(D1-A)*%
X131147500Y-104390000D02*
X131406667Y-104390000D01*
X131420000Y-108420000D02*
X131420000Y-104403333D01*
X131420000Y-104403333D02*
X131406667Y-104390000D01*
X122102500Y-95345000D02*
X131147500Y-104390000D01*
%TO.N,Net-(D3-A)*%
X122102500Y-103422500D02*
X128830000Y-110150000D01*
X135540000Y-109840000D02*
X135540000Y-108746667D01*
X135053333Y-104293333D02*
X135040000Y-104280000D01*
X135540000Y-108746667D02*
X135053333Y-108260000D01*
X135053333Y-108260000D02*
X135053333Y-104293333D01*
X128830000Y-110150000D02*
X135230000Y-110150000D01*
X135230000Y-110150000D02*
X135540000Y-109840000D01*
X122102500Y-100425000D02*
X122102500Y-103422500D01*
%TO.N,Net-(D5-A)*%
X148985000Y-105575000D02*
X148200000Y-106360000D01*
X148985000Y-98970000D02*
X148985000Y-105575000D01*
%TD*%
%TA.AperFunction,Conductor*%
%TO.N,GND*%
G36*
X149472138Y-89410185D02*
G01*
X149517893Y-89462989D01*
X149527837Y-89532147D01*
X149512487Y-89576499D01*
X149421956Y-89733304D01*
X149421953Y-89733309D01*
X149321605Y-89975571D01*
X149321602Y-89975581D01*
X149272487Y-90158884D01*
X149253730Y-90228885D01*
X149219500Y-90488872D01*
X149219500Y-90751127D01*
X149240436Y-90910140D01*
X149253730Y-91011116D01*
X149302846Y-91194419D01*
X149321602Y-91264418D01*
X149321605Y-91264428D01*
X149421953Y-91506690D01*
X149421958Y-91506700D01*
X149553075Y-91733803D01*
X149712718Y-91941851D01*
X149712726Y-91941860D01*
X149898140Y-92127274D01*
X149898148Y-92127281D01*
X150106196Y-92286924D01*
X150333299Y-92418041D01*
X150333309Y-92418046D01*
X150575571Y-92518394D01*
X150575581Y-92518398D01*
X150828884Y-92586270D01*
X151088880Y-92620500D01*
X151088887Y-92620500D01*
X151351113Y-92620500D01*
X151351120Y-92620500D01*
X151611116Y-92586270D01*
X151864419Y-92518398D01*
X152106697Y-92418043D01*
X152243500Y-92339059D01*
X152311400Y-92322587D01*
X152377427Y-92345440D01*
X152420618Y-92400361D01*
X152429500Y-92446447D01*
X152429500Y-117660044D01*
X152409815Y-117727083D01*
X152357011Y-117772838D01*
X152287853Y-117782782D01*
X152243502Y-117767432D01*
X152216702Y-117751960D01*
X152216690Y-117751953D01*
X151974428Y-117651605D01*
X151974421Y-117651603D01*
X151974419Y-117651602D01*
X151721116Y-117583730D01*
X151663339Y-117576123D01*
X151461127Y-117549500D01*
X151461120Y-117549500D01*
X151198880Y-117549500D01*
X151198872Y-117549500D01*
X150967772Y-117579926D01*
X150938884Y-117583730D01*
X150705622Y-117646232D01*
X150685581Y-117651602D01*
X150685571Y-117651605D01*
X150443309Y-117751953D01*
X150443299Y-117751958D01*
X150216196Y-117883075D01*
X150008148Y-118042718D01*
X149822718Y-118228148D01*
X149663075Y-118436196D01*
X149531958Y-118663299D01*
X149531953Y-118663309D01*
X149431605Y-118905571D01*
X149431602Y-118905581D01*
X149363730Y-119158885D01*
X149329500Y-119418872D01*
X149329500Y-119681127D01*
X149350436Y-119840140D01*
X149363730Y-119941116D01*
X149385178Y-120021161D01*
X149431602Y-120194418D01*
X149431605Y-120194428D01*
X149531953Y-120436690D01*
X149531956Y-120436696D01*
X149531957Y-120436697D01*
X149535884Y-120443500D01*
X149552358Y-120511397D01*
X149529507Y-120577425D01*
X149474587Y-120620617D01*
X149428498Y-120629500D01*
X117486862Y-120629500D01*
X117419823Y-120609815D01*
X117374068Y-120557011D01*
X117364124Y-120487853D01*
X117379474Y-120443501D01*
X117386414Y-120431480D01*
X117418043Y-120376697D01*
X117518398Y-120134419D01*
X117586270Y-119881116D01*
X117620500Y-119621120D01*
X117620500Y-119358880D01*
X117586270Y-119098884D01*
X117518398Y-118845581D01*
X117445057Y-118668520D01*
X117418046Y-118603309D01*
X117418041Y-118603299D01*
X117286924Y-118376196D01*
X117127281Y-118168148D01*
X117127274Y-118168140D01*
X116941860Y-117982726D01*
X116941851Y-117982718D01*
X116733803Y-117823075D01*
X116506700Y-117691958D01*
X116506690Y-117691953D01*
X116264428Y-117591605D01*
X116264421Y-117591603D01*
X116264419Y-117591602D01*
X116011116Y-117523730D01*
X115953339Y-117516123D01*
X115751127Y-117489500D01*
X115751120Y-117489500D01*
X115488880Y-117489500D01*
X115488872Y-117489500D01*
X115257772Y-117519926D01*
X115228884Y-117523730D01*
X115132709Y-117549500D01*
X114975581Y-117591602D01*
X114975571Y-117591605D01*
X114733309Y-117691953D01*
X114733292Y-117691962D01*
X114626499Y-117753619D01*
X114558599Y-117770092D01*
X114492572Y-117747239D01*
X114449382Y-117692318D01*
X114440500Y-117646232D01*
X114440500Y-108456995D01*
X120422000Y-108456995D01*
X120422000Y-108693004D01*
X120422001Y-108693020D01*
X120452806Y-108927010D01*
X120513894Y-109154993D01*
X120604214Y-109373045D01*
X120604216Y-109373050D01*
X120636711Y-109429332D01*
X120722227Y-109577450D01*
X120722229Y-109577453D01*
X120722230Y-109577454D01*
X120865906Y-109764697D01*
X120865912Y-109764704D01*
X121032795Y-109931587D01*
X121032801Y-109931592D01*
X121220050Y-110075273D01*
X121351418Y-110151118D01*
X121424443Y-110193280D01*
X121424448Y-110193282D01*
X121424451Y-110193284D01*
X121642507Y-110283606D01*
X121870486Y-110344693D01*
X122104489Y-110375500D01*
X122104496Y-110375500D01*
X122340504Y-110375500D01*
X122340511Y-110375500D01*
X122574514Y-110344693D01*
X122802493Y-110283606D01*
X123020549Y-110193284D01*
X123224950Y-110075273D01*
X123412199Y-109931592D01*
X123579092Y-109764699D01*
X123722773Y-109577450D01*
X123817778Y-109412897D01*
X123840784Y-109373050D01*
X123840784Y-109373048D01*
X123931106Y-109154993D01*
X123992193Y-108927014D01*
X124023000Y-108693011D01*
X124023000Y-108456989D01*
X123992193Y-108222986D01*
X123931106Y-107995007D01*
X123840784Y-107776951D01*
X123840782Y-107776948D01*
X123840780Y-107776943D01*
X123773551Y-107660500D01*
X123722773Y-107572550D01*
X123603571Y-107417203D01*
X123579093Y-107385302D01*
X123579087Y-107385295D01*
X123412204Y-107218412D01*
X123412197Y-107218406D01*
X123224954Y-107074730D01*
X123224953Y-107074729D01*
X123224950Y-107074727D01*
X123143457Y-107027677D01*
X123020556Y-106956719D01*
X123020545Y-106956714D01*
X122802493Y-106866394D01*
X122619231Y-106817289D01*
X122574514Y-106805307D01*
X122574513Y-106805306D01*
X122574510Y-106805306D01*
X122340520Y-106774501D01*
X122340517Y-106774500D01*
X122340511Y-106774500D01*
X122104489Y-106774500D01*
X122104483Y-106774500D01*
X122104479Y-106774501D01*
X121870489Y-106805306D01*
X121642506Y-106866394D01*
X121424454Y-106956714D01*
X121424443Y-106956719D01*
X121220045Y-107074730D01*
X121032802Y-107218406D01*
X121032795Y-107218412D01*
X120865912Y-107385295D01*
X120865906Y-107385302D01*
X120722230Y-107572545D01*
X120604219Y-107776943D01*
X120604214Y-107776954D01*
X120513894Y-107995006D01*
X120452806Y-108222989D01*
X120422001Y-108456979D01*
X120422000Y-108456995D01*
X114440500Y-108456995D01*
X114440500Y-95226995D01*
X120302000Y-95226995D01*
X120302000Y-95463004D01*
X120302001Y-95463020D01*
X120329607Y-95672712D01*
X120332807Y-95697014D01*
X120350974Y-95764814D01*
X120393894Y-95924993D01*
X120484214Y-96143045D01*
X120484219Y-96143056D01*
X120555177Y-96265957D01*
X120602227Y-96347450D01*
X120602229Y-96347453D01*
X120602230Y-96347454D01*
X120745906Y-96534697D01*
X120745912Y-96534704D01*
X120912795Y-96701587D01*
X120912801Y-96701592D01*
X121100050Y-96845273D01*
X121231418Y-96921118D01*
X121304443Y-96963280D01*
X121304448Y-96963282D01*
X121304451Y-96963284D01*
X121522507Y-97053606D01*
X121750486Y-97114693D01*
X121984489Y-97145500D01*
X121984496Y-97145500D01*
X122220504Y-97145500D01*
X122220511Y-97145500D01*
X122454514Y-97114693D01*
X122682493Y-97053606D01*
X122803496Y-97003483D01*
X122872964Y-96996015D01*
X122935443Y-97027289D01*
X122938629Y-97030364D01*
X129811554Y-103903290D01*
X129845039Y-103964613D01*
X129845293Y-104010237D01*
X129846339Y-104010403D01*
X129806167Y-104264038D01*
X129806167Y-104515961D01*
X129845577Y-104764785D01*
X129923427Y-105004383D01*
X130037799Y-105228848D01*
X130185868Y-105432649D01*
X130185872Y-105432654D01*
X130364012Y-105610794D01*
X130364017Y-105610798D01*
X130567820Y-105758869D01*
X130567822Y-105758870D01*
X130751794Y-105852608D01*
X130802591Y-105900582D01*
X130819500Y-105963093D01*
X130819500Y-106695500D01*
X130799815Y-106762539D01*
X130747011Y-106808294D01*
X130695500Y-106819500D01*
X130519982Y-106819500D01*
X130417203Y-106830000D01*
X130417202Y-106830001D01*
X130334669Y-106857349D01*
X130250667Y-106885185D01*
X130250662Y-106885187D01*
X130101342Y-106977289D01*
X129977289Y-107101342D01*
X129885187Y-107250662D01*
X129885185Y-107250667D01*
X129857349Y-107334669D01*
X129830001Y-107417202D01*
X129830001Y-107417203D01*
X129830000Y-107417203D01*
X129819500Y-107519982D01*
X129819500Y-109320017D01*
X129824918Y-109373045D01*
X129828989Y-109412898D01*
X129816221Y-109481590D01*
X129768341Y-109532475D01*
X129705632Y-109549500D01*
X129130098Y-109549500D01*
X129063059Y-109529815D01*
X129042417Y-109513181D01*
X122739319Y-103210083D01*
X122705834Y-103148760D01*
X122703000Y-103122402D01*
X122703000Y-102349499D01*
X122722685Y-102282460D01*
X122775489Y-102236705D01*
X122827000Y-102225499D01*
X123202502Y-102225499D01*
X123202508Y-102225499D01*
X123305297Y-102214999D01*
X123471834Y-102159814D01*
X123621156Y-102067712D01*
X123745212Y-101943656D01*
X123837314Y-101794334D01*
X123892499Y-101627797D01*
X123903000Y-101525009D01*
X123902999Y-99324992D01*
X123892499Y-99222203D01*
X123837314Y-99055666D01*
X123745212Y-98906344D01*
X123621156Y-98782288D01*
X123471834Y-98690186D01*
X123305297Y-98635001D01*
X123305295Y-98635000D01*
X123202510Y-98624500D01*
X121002498Y-98624500D01*
X121002481Y-98624501D01*
X120899703Y-98635000D01*
X120899700Y-98635001D01*
X120733168Y-98690185D01*
X120733163Y-98690187D01*
X120583842Y-98782289D01*
X120459789Y-98906342D01*
X120367687Y-99055663D01*
X120367686Y-99055666D01*
X120312501Y-99222203D01*
X120312501Y-99222204D01*
X120312500Y-99222204D01*
X120302000Y-99324983D01*
X120302000Y-101525001D01*
X120302001Y-101525018D01*
X120312500Y-101627796D01*
X120312501Y-101627799D01*
X120367685Y-101794331D01*
X120367686Y-101794334D01*
X120459788Y-101943656D01*
X120583844Y-102067712D01*
X120733166Y-102159814D01*
X120899703Y-102214999D01*
X121002491Y-102225500D01*
X121378000Y-102225499D01*
X121445039Y-102245183D01*
X121490794Y-102297987D01*
X121502000Y-102349499D01*
X121502000Y-103335830D01*
X121501999Y-103335848D01*
X121501999Y-103501554D01*
X121501998Y-103501554D01*
X121501999Y-103501557D01*
X121542923Y-103654285D01*
X121565179Y-103692833D01*
X121612976Y-103775621D01*
X121621979Y-103791214D01*
X121621981Y-103791217D01*
X121740849Y-103910085D01*
X121740854Y-103910089D01*
X128461284Y-110630520D01*
X128461286Y-110630521D01*
X128461290Y-110630524D01*
X128598209Y-110709573D01*
X128598216Y-110709577D01*
X128750943Y-110750501D01*
X128750945Y-110750501D01*
X128916654Y-110750501D01*
X128916670Y-110750500D01*
X135143331Y-110750500D01*
X135143347Y-110750501D01*
X135150943Y-110750501D01*
X135309054Y-110750501D01*
X135309057Y-110750501D01*
X135461785Y-110709577D01*
X135511904Y-110680639D01*
X135598716Y-110630520D01*
X135710520Y-110518716D01*
X135710520Y-110518714D01*
X135720728Y-110508507D01*
X135720730Y-110508504D01*
X135898506Y-110330728D01*
X135898511Y-110330724D01*
X135908714Y-110320520D01*
X135908716Y-110320520D01*
X136020520Y-110208716D01*
X136097563Y-110075273D01*
X136099577Y-110071785D01*
X136140500Y-109919058D01*
X136140500Y-109895500D01*
X136144604Y-109879947D01*
X136154690Y-109863255D01*
X136160185Y-109844544D01*
X136172388Y-109833969D01*
X136180741Y-109820148D01*
X136198251Y-109811559D01*
X136212989Y-109798789D01*
X136220311Y-109795913D01*
X136222661Y-109794817D01*
X136222663Y-109794815D01*
X136222668Y-109794814D01*
X136371989Y-109702712D01*
X136496045Y-109578656D01*
X136588147Y-109429335D01*
X136643332Y-109262798D01*
X136653833Y-109160010D01*
X136653833Y-107359990D01*
X136643332Y-107257202D01*
X136588147Y-107090665D01*
X136496045Y-106941344D01*
X136371989Y-106817288D01*
X136222668Y-106725186D01*
X136056131Y-106670001D01*
X136056129Y-106670000D01*
X135953350Y-106659500D01*
X135953343Y-106659500D01*
X135777833Y-106659500D01*
X135710794Y-106639815D01*
X135665039Y-106587011D01*
X135653833Y-106535500D01*
X135653833Y-106257648D01*
X139279500Y-106257648D01*
X139279500Y-106462351D01*
X139311522Y-106664534D01*
X139374781Y-106859223D01*
X139467715Y-107041613D01*
X139588028Y-107207213D01*
X139732786Y-107351971D01*
X139887749Y-107464556D01*
X139898390Y-107472287D01*
X139992022Y-107519995D01*
X140080776Y-107565218D01*
X140080778Y-107565218D01*
X140080781Y-107565220D01*
X140185137Y-107599127D01*
X140275465Y-107628477D01*
X140376557Y-107644488D01*
X140477648Y-107660500D01*
X140477649Y-107660500D01*
X140682351Y-107660500D01*
X140682352Y-107660500D01*
X140884534Y-107628477D01*
X140898842Y-107623827D01*
X140968682Y-107621831D01*
X141024842Y-107654077D01*
X143123181Y-109752416D01*
X143156666Y-109813739D01*
X143159500Y-109840097D01*
X143159500Y-110840397D01*
X143139815Y-110907436D01*
X143091800Y-110950879D01*
X143078389Y-110957712D01*
X142912786Y-111078028D01*
X142768028Y-111222786D01*
X142647715Y-111388386D01*
X142554781Y-111570776D01*
X142491522Y-111765465D01*
X142459500Y-111967648D01*
X142459500Y-112172351D01*
X142491522Y-112374534D01*
X142554781Y-112569223D01*
X142647715Y-112751613D01*
X142768028Y-112917213D01*
X142912786Y-113061971D01*
X143067749Y-113174556D01*
X143078390Y-113182287D01*
X143194607Y-113241503D01*
X143260776Y-113275218D01*
X143260778Y-113275218D01*
X143260781Y-113275220D01*
X143365137Y-113309127D01*
X143455465Y-113338477D01*
X143556557Y-113354488D01*
X143657648Y-113370500D01*
X143657649Y-113370500D01*
X143862351Y-113370500D01*
X143862352Y-113370500D01*
X144064534Y-113338477D01*
X144259219Y-113275220D01*
X144441610Y-113182287D01*
X144534590Y-113114732D01*
X144607213Y-113061971D01*
X144607215Y-113061968D01*
X144607219Y-113061966D01*
X144751966Y-112917219D01*
X144751968Y-112917215D01*
X144751971Y-112917213D01*
X144804732Y-112844590D01*
X144872287Y-112751610D01*
X144965220Y-112569219D01*
X145028477Y-112374534D01*
X145060500Y-112172352D01*
X145060500Y-111967648D01*
X145028477Y-111765466D01*
X144965220Y-111570781D01*
X144965218Y-111570778D01*
X144965218Y-111570776D01*
X144931503Y-111504607D01*
X144872287Y-111388390D01*
X144864556Y-111377749D01*
X144751971Y-111222786D01*
X144607213Y-111078028D01*
X144441610Y-110957712D01*
X144428200Y-110950879D01*
X144377406Y-110902903D01*
X144360500Y-110840397D01*
X144360500Y-109460945D01*
X144360500Y-109460943D01*
X144336949Y-109373049D01*
X144319577Y-109308215D01*
X144277870Y-109235977D01*
X144240520Y-109171284D01*
X144128716Y-109059480D01*
X144124385Y-109055149D01*
X144124374Y-109055139D01*
X141874077Y-106804842D01*
X141840592Y-106743519D01*
X141843828Y-106678841D01*
X141848477Y-106664534D01*
X141880500Y-106462352D01*
X141880500Y-106257648D01*
X146899500Y-106257648D01*
X146899500Y-106462351D01*
X146931522Y-106664534D01*
X146994781Y-106859223D01*
X147087715Y-107041613D01*
X147208028Y-107207213D01*
X147352786Y-107351971D01*
X147507749Y-107464556D01*
X147518390Y-107472287D01*
X147612022Y-107519995D01*
X147700776Y-107565218D01*
X147700778Y-107565218D01*
X147700781Y-107565220D01*
X147805137Y-107599127D01*
X147895465Y-107628477D01*
X147996557Y-107644488D01*
X148097648Y-107660500D01*
X148097649Y-107660500D01*
X148302351Y-107660500D01*
X148302352Y-107660500D01*
X148504534Y-107628477D01*
X148699219Y-107565220D01*
X148881610Y-107472287D01*
X149001337Y-107385301D01*
X149047213Y-107351971D01*
X149047215Y-107351968D01*
X149047219Y-107351966D01*
X149191966Y-107207219D01*
X149191968Y-107207215D01*
X149191971Y-107207213D01*
X149268888Y-107101344D01*
X149312287Y-107041610D01*
X149405220Y-106859219D01*
X149468477Y-106664534D01*
X149500500Y-106462352D01*
X149500500Y-106257648D01*
X149468477Y-106055466D01*
X149461238Y-106033186D01*
X149459243Y-105963345D01*
X149471782Y-105932869D01*
X149490423Y-105900582D01*
X149544577Y-105806784D01*
X149585501Y-105654057D01*
X149585501Y-105495942D01*
X149585501Y-105488347D01*
X149585500Y-105488329D01*
X149585500Y-100311835D01*
X149605185Y-100244796D01*
X149653206Y-100201350D01*
X149653547Y-100201175D01*
X149719022Y-100167815D01*
X149897365Y-100038242D01*
X150053242Y-99882365D01*
X150182815Y-99704022D01*
X150282895Y-99507606D01*
X150351015Y-99297951D01*
X150385500Y-99080222D01*
X150385500Y-98859778D01*
X150351015Y-98642049D01*
X150282895Y-98432394D01*
X150282895Y-98432393D01*
X150248237Y-98364375D01*
X150182815Y-98235978D01*
X150166260Y-98213192D01*
X150053247Y-98057641D01*
X150053243Y-98057636D01*
X149897363Y-97901756D01*
X149897358Y-97901752D01*
X149719025Y-97772187D01*
X149719024Y-97772186D01*
X149719022Y-97772185D01*
X149656096Y-97740122D01*
X149522606Y-97672104D01*
X149522603Y-97672103D01*
X149312952Y-97603985D01*
X149204086Y-97586742D01*
X149095222Y-97569500D01*
X148874778Y-97569500D01*
X148802201Y-97580995D01*
X148657047Y-97603985D01*
X148447396Y-97672103D01*
X148447393Y-97672104D01*
X148250974Y-97772187D01*
X148072641Y-97901752D01*
X148072636Y-97901756D01*
X147916756Y-98057636D01*
X147916752Y-98057641D01*
X147787187Y-98235974D01*
X147687104Y-98432393D01*
X147687103Y-98432396D01*
X147618985Y-98642047D01*
X147584500Y-98859778D01*
X147584500Y-99080221D01*
X147618985Y-99297952D01*
X147687103Y-99507603D01*
X147687104Y-99507606D01*
X147787187Y-99704025D01*
X147916752Y-99882358D01*
X147916756Y-99882363D01*
X148072636Y-100038243D01*
X148072641Y-100038247D01*
X148250976Y-100167814D01*
X148316794Y-100201350D01*
X148367591Y-100249324D01*
X148384500Y-100311835D01*
X148384500Y-104935500D01*
X148364815Y-105002539D01*
X148312011Y-105048294D01*
X148260500Y-105059500D01*
X148097648Y-105059500D01*
X148073329Y-105063351D01*
X147895465Y-105091522D01*
X147700776Y-105154781D01*
X147518386Y-105247715D01*
X147352786Y-105368028D01*
X147208028Y-105512786D01*
X147087715Y-105678386D01*
X146994781Y-105860776D01*
X146931522Y-106055465D01*
X146899500Y-106257648D01*
X141880500Y-106257648D01*
X141848477Y-106055465D01*
X141818463Y-105963093D01*
X141785220Y-105860781D01*
X141785218Y-105860778D01*
X141785218Y-105860776D01*
X141740222Y-105772467D01*
X141692287Y-105678390D01*
X141643179Y-105610798D01*
X141571971Y-105512786D01*
X141427213Y-105368028D01*
X141261613Y-105247715D01*
X141261612Y-105247714D01*
X141261610Y-105247713D01*
X141204653Y-105218691D01*
X141079223Y-105154781D01*
X140884534Y-105091522D01*
X140709995Y-105063878D01*
X140682352Y-105059500D01*
X140477648Y-105059500D01*
X140453329Y-105063351D01*
X140275465Y-105091522D01*
X140080776Y-105154781D01*
X139898386Y-105247715D01*
X139732786Y-105368028D01*
X139588028Y-105512786D01*
X139467715Y-105678386D01*
X139374781Y-105860776D01*
X139311522Y-106055465D01*
X139279500Y-106257648D01*
X135653833Y-106257648D01*
X135653833Y-105839506D01*
X135673518Y-105772467D01*
X135721538Y-105729021D01*
X135878845Y-105648870D01*
X136082656Y-105500793D01*
X136260793Y-105322656D01*
X136408870Y-105118845D01*
X136523241Y-104894379D01*
X136601090Y-104654785D01*
X136640500Y-104405962D01*
X136640500Y-104154038D01*
X136601090Y-103905215D01*
X136523241Y-103665621D01*
X136523239Y-103665618D01*
X136523239Y-103665616D01*
X136464918Y-103551155D01*
X136408870Y-103441155D01*
X136340713Y-103347345D01*
X136260798Y-103237350D01*
X136260794Y-103237345D01*
X136082654Y-103059205D01*
X136082649Y-103059201D01*
X135878848Y-102911132D01*
X135878847Y-102911131D01*
X135878845Y-102911130D01*
X135808747Y-102875413D01*
X135654383Y-102796760D01*
X135414785Y-102718910D01*
X135165962Y-102679500D01*
X134914038Y-102679500D01*
X134789626Y-102699205D01*
X134665214Y-102718910D01*
X134425616Y-102796760D01*
X134201151Y-102911132D01*
X133997350Y-103059201D01*
X133997345Y-103059205D01*
X133819205Y-103237345D01*
X133819201Y-103237350D01*
X133671132Y-103441151D01*
X133556760Y-103665616D01*
X133478910Y-103905214D01*
X133439500Y-104154038D01*
X133439500Y-104405962D01*
X133478910Y-104654785D01*
X133556760Y-104894383D01*
X133635183Y-105048294D01*
X133657208Y-105091522D01*
X133671132Y-105118848D01*
X133819201Y-105322649D01*
X133819205Y-105322654D01*
X133997345Y-105500794D01*
X133997350Y-105500798D01*
X134201153Y-105648869D01*
X134201155Y-105648870D01*
X134385127Y-105742608D01*
X134435924Y-105790582D01*
X134452833Y-105853093D01*
X134452833Y-106535500D01*
X134433148Y-106602539D01*
X134380344Y-106648294D01*
X134328833Y-106659500D01*
X134153315Y-106659500D01*
X134050536Y-106670000D01*
X134050535Y-106670001D01*
X134023858Y-106678841D01*
X133884000Y-106725185D01*
X133883995Y-106725187D01*
X133734675Y-106817289D01*
X133610622Y-106941342D01*
X133518520Y-107090662D01*
X133518519Y-107090665D01*
X133463334Y-107257202D01*
X133463334Y-107257203D01*
X133463333Y-107257203D01*
X133452833Y-107359982D01*
X133452833Y-109160017D01*
X133463333Y-109262796D01*
X133463334Y-109262798D01*
X133499866Y-109373045D01*
X133504324Y-109386496D01*
X133506726Y-109456324D01*
X133470994Y-109516366D01*
X133408474Y-109547559D01*
X133386618Y-109549500D01*
X133134368Y-109549500D01*
X133067329Y-109529815D01*
X133021574Y-109477011D01*
X133011010Y-109412898D01*
X133020500Y-109320010D01*
X133020500Y-107519990D01*
X133009999Y-107417202D01*
X132954814Y-107250665D01*
X132862712Y-107101344D01*
X132738656Y-106977288D01*
X132589335Y-106885186D01*
X132422798Y-106830001D01*
X132422796Y-106830000D01*
X132320017Y-106819500D01*
X132320010Y-106819500D01*
X132144500Y-106819500D01*
X132077461Y-106799815D01*
X132031706Y-106747011D01*
X132020500Y-106695500D01*
X132020500Y-105949506D01*
X132040185Y-105882467D01*
X132088205Y-105839021D01*
X132245512Y-105758870D01*
X132449323Y-105610793D01*
X132627460Y-105432656D01*
X132775537Y-105228845D01*
X132889908Y-105004379D01*
X132967757Y-104764785D01*
X133007167Y-104515962D01*
X133007167Y-104264038D01*
X132967757Y-104015215D01*
X132889908Y-103775621D01*
X132889906Y-103775618D01*
X132889906Y-103775616D01*
X132828084Y-103654285D01*
X132775537Y-103551155D01*
X132695615Y-103441151D01*
X132627465Y-103347350D01*
X132627461Y-103347345D01*
X132449321Y-103169205D01*
X132449316Y-103169201D01*
X132245515Y-103021132D01*
X132245514Y-103021131D01*
X132245512Y-103021130D01*
X132150773Y-102972858D01*
X132021050Y-102906760D01*
X131781452Y-102828910D01*
X131578466Y-102796760D01*
X131532629Y-102789500D01*
X131280705Y-102789500D01*
X131234874Y-102796759D01*
X131031880Y-102828910D01*
X131031877Y-102828910D01*
X130792291Y-102906757D01*
X130792290Y-102906757D01*
X130687869Y-102959962D01*
X130619200Y-102972858D01*
X130554459Y-102946581D01*
X130543894Y-102937158D01*
X123787864Y-96181129D01*
X123754379Y-96119806D01*
X123759363Y-96050114D01*
X123760968Y-96046033D01*
X123811106Y-95924993D01*
X123872193Y-95697014D01*
X123903000Y-95463011D01*
X123903000Y-95226989D01*
X123872193Y-94992986D01*
X123811106Y-94765007D01*
X123720784Y-94546951D01*
X123720782Y-94546948D01*
X123720780Y-94546943D01*
X123675905Y-94469219D01*
X123602773Y-94342550D01*
X123459092Y-94155301D01*
X123459087Y-94155295D01*
X123292204Y-93988412D01*
X123292197Y-93988406D01*
X123104954Y-93844730D01*
X123104953Y-93844729D01*
X123104950Y-93844727D01*
X123023457Y-93797677D01*
X122900556Y-93726719D01*
X122900545Y-93726714D01*
X122682493Y-93636394D01*
X122454510Y-93575306D01*
X122220520Y-93544501D01*
X122220517Y-93544500D01*
X122220511Y-93544500D01*
X121984489Y-93544500D01*
X121984483Y-93544500D01*
X121984479Y-93544501D01*
X121750489Y-93575306D01*
X121522506Y-93636394D01*
X121304454Y-93726714D01*
X121304443Y-93726719D01*
X121100045Y-93844730D01*
X120912802Y-93988406D01*
X120912795Y-93988412D01*
X120745912Y-94155295D01*
X120745906Y-94155302D01*
X120602230Y-94342545D01*
X120484219Y-94546943D01*
X120484214Y-94546954D01*
X120393894Y-94765006D01*
X120332806Y-94992989D01*
X120302001Y-95226979D01*
X120302000Y-95226995D01*
X114440500Y-95226995D01*
X114440500Y-93329982D01*
X129806167Y-93329982D01*
X129806167Y-95130017D01*
X129816667Y-95232796D01*
X129835403Y-95289337D01*
X129871853Y-95399335D01*
X129963955Y-95548656D01*
X130088011Y-95672712D01*
X130237332Y-95764814D01*
X130403869Y-95819999D01*
X130506657Y-95830500D01*
X130506662Y-95830500D01*
X132306672Y-95830500D01*
X132306677Y-95830500D01*
X132409465Y-95819999D01*
X132576002Y-95764814D01*
X132725323Y-95672712D01*
X132849379Y-95548656D01*
X132941481Y-95399335D01*
X132996666Y-95232798D01*
X133007167Y-95130010D01*
X133007167Y-93329990D01*
X132996666Y-93227202D01*
X132994274Y-93219982D01*
X133439500Y-93219982D01*
X133439500Y-95020017D01*
X133450000Y-95122796D01*
X133486451Y-95232796D01*
X133505186Y-95289335D01*
X133597288Y-95438656D01*
X133721344Y-95562712D01*
X133870665Y-95654814D01*
X134037202Y-95709999D01*
X134139990Y-95720500D01*
X134139995Y-95720500D01*
X135940005Y-95720500D01*
X135940010Y-95720500D01*
X136042798Y-95709999D01*
X136209335Y-95654814D01*
X136358656Y-95562712D01*
X136482712Y-95438656D01*
X136574814Y-95289335D01*
X136629999Y-95122798D01*
X136640500Y-95020010D01*
X136640500Y-93867648D01*
X139809500Y-93867648D01*
X139809500Y-94072351D01*
X139841522Y-94274534D01*
X139904781Y-94469223D01*
X139997715Y-94651613D01*
X140118028Y-94817213D01*
X140262786Y-94961971D01*
X140417749Y-95074556D01*
X140428390Y-95082287D01*
X140544607Y-95141503D01*
X140610776Y-95175218D01*
X140610778Y-95175218D01*
X140610781Y-95175220D01*
X140715137Y-95209127D01*
X140805465Y-95238477D01*
X140906557Y-95254488D01*
X141007648Y-95270500D01*
X141007649Y-95270500D01*
X141212351Y-95270500D01*
X141212352Y-95270500D01*
X141414534Y-95238477D01*
X141609219Y-95175220D01*
X141791610Y-95082287D01*
X141884590Y-95014732D01*
X141957213Y-94961971D01*
X141957215Y-94961968D01*
X141957219Y-94961966D01*
X142101966Y-94817219D01*
X142101968Y-94817215D01*
X142101971Y-94817213D01*
X142154732Y-94744590D01*
X142222287Y-94651610D01*
X142315220Y-94469219D01*
X142378477Y-94274534D01*
X142410500Y-94072352D01*
X142410500Y-93867648D01*
X142378477Y-93665466D01*
X142315220Y-93470781D01*
X142315218Y-93470778D01*
X142315218Y-93470776D01*
X142281503Y-93404607D01*
X142222287Y-93288390D01*
X142177834Y-93227205D01*
X142101971Y-93122786D01*
X141957213Y-92978028D01*
X141791613Y-92857715D01*
X141791612Y-92857714D01*
X141791610Y-92857713D01*
X141734653Y-92828691D01*
X141609223Y-92764781D01*
X141414534Y-92701522D01*
X141239995Y-92673878D01*
X141212352Y-92669500D01*
X141007648Y-92669500D01*
X140983329Y-92673351D01*
X140805465Y-92701522D01*
X140610776Y-92764781D01*
X140428386Y-92857715D01*
X140262786Y-92978028D01*
X140118028Y-93122786D01*
X139997715Y-93288386D01*
X139904781Y-93470776D01*
X139841522Y-93665465D01*
X139809500Y-93867648D01*
X136640500Y-93867648D01*
X136640500Y-93219990D01*
X136629999Y-93117202D01*
X136574814Y-92950665D01*
X136482712Y-92801344D01*
X136358656Y-92677288D01*
X136265890Y-92620070D01*
X136209337Y-92585187D01*
X136209332Y-92585185D01*
X136207863Y-92584698D01*
X136042798Y-92530001D01*
X136042796Y-92530000D01*
X135940017Y-92519500D01*
X135940010Y-92519500D01*
X134139990Y-92519500D01*
X134139982Y-92519500D01*
X134037203Y-92530000D01*
X134037202Y-92530001D01*
X133975343Y-92550499D01*
X133870667Y-92585185D01*
X133870662Y-92585187D01*
X133721342Y-92677289D01*
X133597289Y-92801342D01*
X133505187Y-92950662D01*
X133505186Y-92950665D01*
X133450001Y-93117202D01*
X133450001Y-93117203D01*
X133450000Y-93117203D01*
X133439500Y-93219982D01*
X132994274Y-93219982D01*
X132941481Y-93060665D01*
X132849379Y-92911344D01*
X132725323Y-92787288D01*
X132586276Y-92701523D01*
X132576004Y-92695187D01*
X132575999Y-92695185D01*
X132574530Y-92694698D01*
X132409465Y-92640001D01*
X132409463Y-92640000D01*
X132306684Y-92629500D01*
X132306677Y-92629500D01*
X130506657Y-92629500D01*
X130506649Y-92629500D01*
X130403870Y-92640000D01*
X130403869Y-92640001D01*
X130321336Y-92667349D01*
X130237334Y-92695185D01*
X130237329Y-92695187D01*
X130088009Y-92787289D01*
X129963956Y-92911342D01*
X129871854Y-93060662D01*
X129871853Y-93060665D01*
X129816668Y-93227202D01*
X129816668Y-93227203D01*
X129816667Y-93227203D01*
X129806167Y-93329982D01*
X114440500Y-93329982D01*
X114440500Y-92405314D01*
X114460185Y-92338275D01*
X114512989Y-92292520D01*
X114582147Y-92282576D01*
X114626497Y-92297926D01*
X114713303Y-92348043D01*
X114713305Y-92348043D01*
X114713309Y-92348046D01*
X114950871Y-92446447D01*
X114955581Y-92448398D01*
X115208884Y-92516270D01*
X115468880Y-92550500D01*
X115468887Y-92550500D01*
X115731113Y-92550500D01*
X115731120Y-92550500D01*
X115991116Y-92516270D01*
X116244419Y-92448398D01*
X116486697Y-92348043D01*
X116713803Y-92216924D01*
X116921851Y-92057282D01*
X116921855Y-92057277D01*
X116921860Y-92057274D01*
X117107274Y-91871860D01*
X117107277Y-91871855D01*
X117107282Y-91871851D01*
X117266924Y-91663803D01*
X117398043Y-91436697D01*
X117498398Y-91194419D01*
X117566270Y-90941116D01*
X117600500Y-90681120D01*
X117600500Y-90418880D01*
X117566270Y-90158884D01*
X117498398Y-89905581D01*
X117429199Y-89738520D01*
X117398046Y-89663309D01*
X117398041Y-89663300D01*
X117347926Y-89576498D01*
X117331454Y-89508600D01*
X117354306Y-89442573D01*
X117409228Y-89399382D01*
X117455314Y-89390500D01*
X149405099Y-89390500D01*
X149472138Y-89410185D01*
G37*
%TD.AperFunction*%
%TD*%
M02*
