%TF.GenerationSoftware,KiCad,Pcbnew,10.0.3*%
%TF.CreationDate,2026-08-17T19:15:30+05:30*%
%TF.ProjectId,ac_dc_converter,61635f64-635f-4636-9f6e-766572746572,rev?*%
%TF.SameCoordinates,Original*%
%TF.FileFunction,Legend,Bot*%
%TF.FilePolarity,Positive*%
%FSLAX46Y46*%
G04 Gerber Fmt 4.6, Leading zero omitted, Abs format (unit mm)*
G04 Created by KiCad (PCBNEW 10.0.3) date 2026-08-17 19:15:30*
%MOMM*%
%LPD*%
G01*
G04 APERTURE LIST*
%ADD10C,0.250000*%
G04 APERTURE END LIST*
D10*
X148295050Y-119627000D02*
X148152193Y-119674619D01*
X148152193Y-119674619D02*
X147914098Y-119674619D01*
X147914098Y-119674619D02*
X147818860Y-119627000D01*
X147818860Y-119627000D02*
X147771241Y-119579380D01*
X147771241Y-119579380D02*
X147723622Y-119484142D01*
X147723622Y-119484142D02*
X147723622Y-119388904D01*
X147723622Y-119388904D02*
X147771241Y-119293666D01*
X147771241Y-119293666D02*
X147818860Y-119246047D01*
X147818860Y-119246047D02*
X147914098Y-119198428D01*
X147914098Y-119198428D02*
X148104574Y-119150809D01*
X148104574Y-119150809D02*
X148199812Y-119103190D01*
X148199812Y-119103190D02*
X148247431Y-119055571D01*
X148247431Y-119055571D02*
X148295050Y-118960333D01*
X148295050Y-118960333D02*
X148295050Y-118865095D01*
X148295050Y-118865095D02*
X148247431Y-118769857D01*
X148247431Y-118769857D02*
X148199812Y-118722238D01*
X148199812Y-118722238D02*
X148104574Y-118674619D01*
X148104574Y-118674619D02*
X147866479Y-118674619D01*
X147866479Y-118674619D02*
X147723622Y-118722238D01*
X147295050Y-119674619D02*
X147295050Y-119007952D01*
X147295050Y-119198428D02*
X147247431Y-119103190D01*
X147247431Y-119103190D02*
X147199812Y-119055571D01*
X147199812Y-119055571D02*
X147104574Y-119007952D01*
X147104574Y-119007952D02*
X147009336Y-119007952D01*
X146247431Y-119007952D02*
X146247431Y-119674619D01*
X146676002Y-119007952D02*
X146676002Y-119531761D01*
X146676002Y-119531761D02*
X146628383Y-119627000D01*
X146628383Y-119627000D02*
X146533145Y-119674619D01*
X146533145Y-119674619D02*
X146390288Y-119674619D01*
X146390288Y-119674619D02*
X146295050Y-119627000D01*
X146295050Y-119627000D02*
X146247431Y-119579380D01*
X145818859Y-119627000D02*
X145723621Y-119674619D01*
X145723621Y-119674619D02*
X145533145Y-119674619D01*
X145533145Y-119674619D02*
X145437907Y-119627000D01*
X145437907Y-119627000D02*
X145390288Y-119531761D01*
X145390288Y-119531761D02*
X145390288Y-119484142D01*
X145390288Y-119484142D02*
X145437907Y-119388904D01*
X145437907Y-119388904D02*
X145533145Y-119341285D01*
X145533145Y-119341285D02*
X145676002Y-119341285D01*
X145676002Y-119341285D02*
X145771240Y-119293666D01*
X145771240Y-119293666D02*
X145818859Y-119198428D01*
X145818859Y-119198428D02*
X145818859Y-119150809D01*
X145818859Y-119150809D02*
X145771240Y-119055571D01*
X145771240Y-119055571D02*
X145676002Y-119007952D01*
X145676002Y-119007952D02*
X145533145Y-119007952D01*
X145533145Y-119007952D02*
X145437907Y-119055571D01*
X144961716Y-119674619D02*
X144961716Y-118674619D01*
X144533145Y-119674619D02*
X144533145Y-119150809D01*
X144533145Y-119150809D02*
X144580764Y-119055571D01*
X144580764Y-119055571D02*
X144676002Y-119007952D01*
X144676002Y-119007952D02*
X144818859Y-119007952D01*
X144818859Y-119007952D02*
X144914097Y-119055571D01*
X144914097Y-119055571D02*
X144961716Y-119103190D01*
X144199811Y-119007952D02*
X143818859Y-119007952D01*
X144056954Y-118674619D02*
X144056954Y-119531761D01*
X144056954Y-119531761D02*
X144009335Y-119627000D01*
X144009335Y-119627000D02*
X143914097Y-119674619D01*
X143914097Y-119674619D02*
X143818859Y-119674619D01*
X143485525Y-119674619D02*
X143485525Y-119007952D01*
X143485525Y-118674619D02*
X143533144Y-118722238D01*
X143533144Y-118722238D02*
X143485525Y-118769857D01*
X143485525Y-118769857D02*
X143437906Y-118722238D01*
X143437906Y-118722238D02*
X143485525Y-118674619D01*
X143485525Y-118674619D02*
X143485525Y-118769857D01*
X142247430Y-119674619D02*
X142247430Y-118674619D01*
X142247430Y-118674619D02*
X142009335Y-118674619D01*
X142009335Y-118674619D02*
X141866478Y-118722238D01*
X141866478Y-118722238D02*
X141771240Y-118817476D01*
X141771240Y-118817476D02*
X141723621Y-118912714D01*
X141723621Y-118912714D02*
X141676002Y-119103190D01*
X141676002Y-119103190D02*
X141676002Y-119246047D01*
X141676002Y-119246047D02*
X141723621Y-119436523D01*
X141723621Y-119436523D02*
X141771240Y-119531761D01*
X141771240Y-119531761D02*
X141866478Y-119627000D01*
X141866478Y-119627000D02*
X142009335Y-119674619D01*
X142009335Y-119674619D02*
X142247430Y-119674619D01*
M02*
